<svg width="261" height="66" viewBox="0 0 261 66" fill="none" xmlns="http://www.w3.org/2000/svg">
<path d="M37.8438 18.3125C37.8438 22.6354 37.7396 26.9844 37.5312 31.3594C37.3229 35.6823 37.0625 40.0052 36.75 44.3281C36.6979 45.1094 36.6458 46.1771 36.5938 47.5312C36.5417 48.8333 36.4375 50.2656 36.2812 51.8281C36.125 53.3385 35.9167 54.875 35.6562 56.4375C35.3958 58 34.9792 59.4323 34.4062 60.7344C33.8854 61.9844 33.1823 63 32.2969 63.7812C31.4635 64.6146 30.4219 65.0312 29.1719 65.0312C28.0781 65.0312 27.0885 64.7969 26.2031 64.3281C25.3698 63.8594 24.6667 63.2604 24.0938 62.5312C23.5208 61.75 23.0781 60.8906 22.7656 59.9531C22.4531 58.9635 22.2969 57.9479 22.2969 56.9062C22.2969 55.1875 22.349 53.4688 22.4531 51.75C22.5573 49.9792 22.7135 48.2344 22.9219 46.5156L15.1875 47.2969C15.0312 48.651 14.849 50.2917 14.6406 52.2188C14.4844 54.0938 14.1198 55.9167 13.5469 57.6875C13.026 59.4062 12.2188 60.8906 11.125 62.1406C10.0312 63.3906 8.52083 64.0156 6.59375 64.0156C5.39583 64.0156 4.40625 63.7292 3.625 63.1562C2.84375 62.6354 2.21875 61.9583 1.75 61.125C1.28125 60.2396 0.942708 59.276 0.734375 58.2344C0.526042 57.1927 0.421875 56.2031 0.421875 55.2656C0.421875 52.1406 0.552083 49.0417 0.8125 45.9688C1.07292 42.8438 1.25521 39.7188 1.35938 36.5938C1.46354 33.3125 1.48958 30.0312 1.4375 26.75C1.4375 23.4167 1.48958 20.0833 1.59375 16.75C1.64583 15.6562 1.67188 14.3802 1.67188 12.9219C1.72396 11.4635 1.90625 10.1094 2.21875 8.85938C2.58333 7.55729 3.15625 6.46354 3.9375 5.57812C4.77083 4.69271 5.99479 4.25 7.60938 4.25C9.84896 4.25 11.5417 4.84896 12.6875 6.04688C13.8333 7.19271 14.6406 8.65104 15.1094 10.4219C15.5781 12.1406 15.8125 13.9896 15.8125 15.9688C15.8125 17.8958 15.8125 19.6406 15.8125 21.2031C15.8125 23.2865 15.7604 25.3438 15.6562 27.375C15.5521 29.3542 15.4479 31.3594 15.3438 33.3906L23.7031 32.1406C23.7552 29.5885 23.8073 27.0625 23.8594 24.5625C23.9115 22.0625 24.0156 19.5625 24.1719 17.0625C24.224 15.8646 24.276 14.5885 24.3281 13.2344C24.3802 11.8802 24.5885 10.6302 24.9531 9.48438C25.3177 8.33854 25.9167 7.40104 26.75 6.67188C27.6354 5.89062 28.9375 5.5 30.6562 5.5C32.1146 5.5 33.2865 5.91667 34.1719 6.75C35.1094 7.58333 35.8385 8.59896 36.3594 9.79688C36.9323 10.9948 37.3229 12.2708 37.5312 13.625C37.7396 14.9792 37.8438 16.2031 37.8438 17.2969V18.3125ZM75.7344 49.0938C75.7344 50.8646 75.1615 52.6094 74.0156 54.3281C72.9219 55.9948 71.5156 57.5052 69.7969 58.8594C68.1302 60.1615 66.3333 61.2292 64.4062 62.0625C62.4792 62.8438 60.7083 63.2344 59.0938 63.2344C56.3333 63.2344 53.8594 62.5573 51.6719 61.2031C49.5365 59.7969 47.7396 58.026 46.2812 55.8906C44.8229 53.7552 43.7031 51.4115 42.9219 48.8594C42.1927 46.2552 41.8281 43.7292 41.8281 41.2812C41.8281 38.6771 42.1927 35.8906 42.9219 32.9219C43.651 29.9531 44.7448 27.2188 46.2031 24.7188C47.7135 22.2188 49.5885 20.1354 51.8281 18.4688C54.1198 16.8021 56.8281 15.9688 59.9531 15.9688C61.724 15.9688 63.4167 16.2812 65.0312 16.9062C66.6458 17.4792 68.0521 18.3125 69.25 19.4062C70.4479 20.5 71.4115 21.8021 72.1406 23.3125C72.8698 24.8229 73.2344 26.5156 73.2344 28.3906C73.2344 30.8385 72.7135 33.1302 71.6719 35.2656C70.6302 37.401 69.25 39.25 67.5312 40.8125C65.8125 42.375 63.8333 43.651 61.5938 44.6406C59.3542 45.5781 57.0625 46.099 54.7188 46.2031C54.9271 47.7135 55.526 48.8073 56.5156 49.4844C57.5573 50.1615 58.7812 50.5 60.1875 50.5C61.2292 50.5 62.2448 50.2396 63.2344 49.7188C64.224 49.1979 65.1875 48.625 66.125 48C67.0625 47.3229 67.974 46.724 68.8594 46.2031C69.7969 45.6823 70.7344 45.4219 71.6719 45.4219C72.7135 45.4219 73.651 45.7604 74.4844 46.4375C75.3177 47.1146 75.7344 48 75.7344 49.0938ZM63.0781 29.9531C63.0781 29.276 62.8958 28.5729 62.5312 27.8438C62.1667 27.1146 61.5938 26.75 60.8125 26.75C59.6667 26.75 58.7031 27.0625 57.9219 27.6875C57.1406 28.2604 56.4896 29.0156 55.9688 29.9531C55.4479 30.8385 55.0312 31.8021 54.7188 32.8438C54.4583 33.8854 54.3021 34.849 54.25 35.7344C54.9792 35.5781 55.8385 35.3698 56.8281 35.1094C57.8698 34.849 58.8333 34.5104 59.7188 34.0938C60.6562 33.625 61.4375 33.0521 62.0625 32.375C62.7396 31.6979 63.0781 30.8906 63.0781 29.9531ZM105.969 33.7812C105.24 33.8333 104.615 33.7812 104.094 33.625C103.573 33.4167 103.052 33.2083 102.531 33C102.062 32.7917 101.594 32.6094 101.125 32.4531C100.656 32.2448 100.135 32.1667 99.5625 32.2188C98.5208 32.2708 97.5833 32.5573 96.75 33.0781C95.9688 33.599 95.2396 34.25 94.5625 35.0312C93.9375 35.8125 93.3906 36.6979 92.9219 37.6875C92.4531 38.625 92.0885 39.5625 91.8281 40.5C91.6719 41.125 91.5417 42.0885 91.4375 43.3906C91.3854 44.6406 91.3594 45.9948 91.3594 47.4531C91.3073 48.9635 91.2812 50.3958 91.2812 51.75C91.2812 53.1042 91.2292 54.1719 91.125 54.9531C91.0729 55.7865 90.9427 56.776 90.7344 57.9219C90.526 59.0156 90.1875 60.0573 89.7188 61.0469C89.3021 62.0365 88.7292 62.8698 88 63.5469C87.2708 64.224 86.3333 64.5625 85.1875 64.5625C84.3021 64.5625 83.5208 64.3021 82.8438 63.7812C82.2188 63.2604 81.6719 62.5833 81.2031 61.75C80.7865 60.8646 80.4219 59.849 80.1094 58.7031C79.849 57.5573 79.6406 56.3854 79.4844 55.1875C79.3281 53.9375 79.1979 52.6875 79.0938 51.4375C79.0417 50.1875 78.9896 49.0156 78.9375 47.9219C78.9375 46.776 78.9375 45.7344 78.9375 44.7969C78.9896 43.8594 79.0156 43.1042 79.0156 42.5312C78.9635 40.7083 78.8594 38.8854 78.7031 37.0625C78.599 35.1875 78.5469 33.3385 78.5469 31.5156C78.5469 30.3698 78.599 29.0938 78.7031 27.6875C78.8073 26.2812 79.0938 24.9792 79.5625 23.7812C80.0312 22.5312 80.7083 21.4896 81.5938 20.6562C82.5312 19.8229 83.8073 19.4062 85.4219 19.4062C86.3073 19.4062 87.0625 19.6927 87.6875 20.2656C88.3125 20.8385 88.8073 21.5417 89.1719 22.375C89.5885 23.2083 89.901 24.0938 90.1094 25.0312C90.3177 25.9688 90.4479 26.8281 90.5 27.6094C91.75 25.5781 93.1562 23.9375 94.7188 22.6875C96.2812 21.3854 98.3125 20.6823 100.812 20.5781C102.062 20.526 103.286 20.6562 104.484 20.9688C105.734 21.2292 106.854 21.6979 107.844 22.375C108.885 23 109.719 23.8333 110.344 24.875C111.021 25.9167 111.385 27.1406 111.438 28.5469C111.542 30.2135 111.047 31.4896 109.953 32.375C108.859 33.2604 107.531 33.7292 105.969 33.7812ZM149.875 52.2188C149.875 53.5208 149.328 54.7448 148.234 55.8906C147.193 57.0365 145.812 58.0781 144.094 59.0156C142.427 59.9531 140.552 60.7865 138.469 61.5156C136.385 62.1927 134.328 62.7656 132.297 63.2344C130.266 63.7552 128.339 64.1458 126.516 64.4062C124.745 64.6667 123.339 64.7969 122.297 64.7969C121.307 64.7969 120.24 64.6927 119.094 64.4844C118 64.3281 117.089 63.9375 116.359 63.3125C115.943 63 115.578 62.2969 115.266 61.2031C114.953 60.1094 114.641 58.8073 114.328 57.2969C114.068 55.7865 113.833 54.1719 113.625 52.4531C113.417 50.6823 113.234 48.9635 113.078 47.2969C112.974 45.6302 112.87 44.0938 112.766 42.6875C112.714 41.2812 112.688 40.1875 112.688 39.4062C112.688 38.1042 112.714 36.5417 112.766 34.7188C112.87 32.8438 113 30.8646 113.156 28.7812C113.312 26.6458 113.521 24.4844 113.781 22.2969C114.042 20.1094 114.328 18.0521 114.641 16.125C115.005 14.1458 115.422 12.375 115.891 10.8125C116.411 9.25 116.958 8.02604 117.531 7.14062C118.521 5.73438 119.771 5.03125 121.281 5.03125C122.323 5.03125 123.208 5.39583 123.938 6.125C124.667 6.80208 125.24 7.71354 125.656 8.85938C126.125 9.95312 126.464 11.2031 126.672 12.6094C126.932 13.9635 127.115 15.3177 127.219 16.6719C127.323 18.026 127.375 19.276 127.375 20.4219C127.375 21.5677 127.375 22.4792 127.375 23.1562C127.375 27.2188 127.271 31.2552 127.062 35.2656C126.906 39.224 126.828 43.2344 126.828 47.2969V50.3438C129.172 49.6146 131.724 48.9375 134.484 48.3125C137.245 47.6354 139.875 47.2969 142.375 47.2969C143.26 47.2969 144.146 47.349 145.031 47.4531C145.969 47.5573 146.776 47.7917 147.453 48.1562C148.182 48.4688 148.755 48.9635 149.172 49.6406C149.641 50.2656 149.875 51.125 149.875 52.2188ZM185.031 51.9844C185.031 52.9219 184.979 54.1458 184.875 55.6562C184.823 57.1667 184.615 58.651 184.25 60.1094C183.885 61.5156 183.312 62.7396 182.531 63.7812C181.75 64.8229 180.656 65.3438 179.25 65.3438C177.323 65.3438 175.839 64.7188 174.797 63.4688C173.755 62.2188 173.26 60.6562 173.312 58.7812C171.646 60.2396 169.745 61.3854 167.609 62.2188C165.526 63.0521 163.391 63.4688 161.203 63.4688C159.693 63.4688 158.26 63.1042 156.906 62.375C155.552 61.6458 154.354 60.7083 153.312 59.5625C152.271 58.4167 151.438 57.1406 150.812 55.7344C150.188 54.276 149.875 52.8438 149.875 51.4375C149.875 48.9375 150.63 46.75 152.141 44.875C153.703 43 155.604 41.4115 157.844 40.1094C160.083 38.7552 162.453 37.6875 164.953 36.9062C167.505 36.125 169.771 35.6042 171.75 35.3438C171.75 35.0833 171.75 34.849 171.75 34.6406C171.802 34.4323 171.828 34.1979 171.828 33.9375C171.828 32.3229 171.385 31.0208 170.5 30.0312C169.615 29.0417 168.365 28.5469 166.75 28.5469C165.448 28.5469 164.328 28.7812 163.391 29.25C162.453 29.6667 161.568 30.1615 160.734 30.7344C159.901 31.2552 159.068 31.75 158.234 32.2188C157.401 32.6354 156.464 32.8438 155.422 32.8438C154.276 32.8438 153.286 32.4792 152.453 31.75C151.672 31.0208 151.281 30.0833 151.281 28.9375C151.281 27.2188 151.776 25.6562 152.766 24.25C153.807 22.8438 155.083 21.6719 156.594 20.7344C158.156 19.7448 159.823 18.9896 161.594 18.4688C163.417 17.8958 165.083 17.6094 166.594 17.6094C168 17.6094 169.406 17.7917 170.812 18.1562C172.219 18.4688 173.547 18.9896 174.797 19.7188C176.047 20.3958 177.167 21.2552 178.156 22.2969C179.198 23.2865 180.031 24.4583 180.656 25.8125C181.594 27.7396 182.349 29.7969 182.922 31.9844C183.495 34.1198 183.938 36.3333 184.25 38.625C184.562 40.8646 184.771 43.1302 184.875 45.4219C184.979 47.6615 185.031 49.849 185.031 51.9844ZM172.531 49.4844L172.297 44.1719C172.193 44.1719 172.089 44.1719 171.984 44.1719C171.88 44.1198 171.776 44.0938 171.672 44.0938C170.995 44.0938 170.135 44.276 169.094 44.6406C168.104 44.9531 167.141 45.4219 166.203 46.0469C165.266 46.6198 164.458 47.2708 163.781 48C163.156 48.7292 162.844 49.4844 162.844 50.2656C162.844 50.9948 163.104 51.4896 163.625 51.75C164.146 52.0104 164.745 52.1406 165.422 52.1406C166.568 52.1406 167.792 51.8542 169.094 51.2812C170.396 50.6562 171.542 50.0573 172.531 49.4844ZM211.906 65.1875C211.021 65.1875 210.318 64.7708 209.797 63.9375C209.276 63.1562 208.885 62.2448 208.625 61.2031C208.365 60.1615 208.182 59.1198 208.078 58.0781C208.026 56.9844 208 56.151 208 55.5781C208 54.0156 208.078 52.4531 208.234 50.8906C208.443 49.3281 208.651 47.7656 208.859 46.2031C209.12 44.6406 209.328 43.0781 209.484 41.5156C209.693 39.9531 209.797 38.3906 209.797 36.8281C209.797 36.2031 209.771 35.526 209.719 34.7969C209.667 34.0677 209.536 33.3906 209.328 32.7656C209.172 32.0885 208.885 31.5417 208.469 31.125C208.052 30.7083 207.505 30.5 206.828 30.5C206.359 30.5 205.839 30.8906 205.266 31.6719C204.693 32.401 204.146 33.2604 203.625 34.25C203.156 35.1875 202.74 36.151 202.375 37.1406C202.062 38.0781 201.906 38.7812 201.906 39.25C201.906 40.3958 201.906 41.5677 201.906 42.7656C201.958 43.9115 201.984 45.0833 201.984 46.2812V50.8125C201.932 51.75 201.854 52.7135 201.75 53.7031C201.646 54.6927 201.49 55.6562 201.281 56.5938C201.125 57.5312 200.891 58.4427 200.578 59.3281C200.266 60.1615 199.849 60.9167 199.328 61.5938C198.859 62.2188 198.286 62.7396 197.609 63.1562C196.932 63.5729 196.125 63.7812 195.188 63.7812C194.146 63.7812 193.286 63.4427 192.609 62.7656C191.932 62.0885 191.385 61.2292 190.969 60.1875C190.552 59.0938 190.24 57.8958 190.031 56.5938C189.875 55.2396 189.745 53.9375 189.641 52.6875C189.589 51.3854 189.562 50.2135 189.562 49.1719C189.615 48.0781 189.641 47.2188 189.641 46.5938V42.9219C189.641 40.9427 189.589 38.9896 189.484 37.0625C189.432 35.1354 189.406 33.2083 189.406 31.2812C189.406 30.2396 189.406 28.9115 189.406 27.2969C189.458 25.6823 189.667 24.1198 190.031 22.6094C190.396 21.0469 190.995 19.7188 191.828 18.625C192.661 17.5312 193.885 16.9844 195.5 16.9844C196.229 16.9844 196.88 17.2188 197.453 17.6875C198.026 18.1562 198.521 18.7292 198.938 19.4062C199.406 20.0833 199.771 20.8125 200.031 21.5938C200.344 22.375 200.578 23.0521 200.734 23.625C201.255 22.8958 201.854 22.1927 202.531 21.5156C203.26 20.8385 204.068 20.2396 204.953 19.7188C205.839 19.1979 206.828 18.7812 207.922 18.4688C209.016 18.1562 210.266 18 211.672 18C214.328 18 216.385 18.651 217.844 19.9531C219.354 21.2031 220.448 22.7917 221.125 24.7188C221.854 26.5938 222.297 28.625 222.453 30.8125C222.609 33 222.688 34.9792 222.688 36.75C222.688 37.6354 222.609 38.9635 222.453 40.7344C222.297 42.4531 222.036 44.3802 221.672 46.5156C221.359 48.599 220.917 50.7604 220.344 53C219.771 55.1875 219.094 57.1927 218.312 59.0156C217.531 60.8385 216.594 62.3229 215.5 63.4688C214.458 64.6146 213.26 65.1875 211.906 65.1875ZM260.734 11.5938C260.734 15.3958 260.578 19.1719 260.266 22.9219C260.005 26.6719 259.875 30.4479 259.875 34.25C259.875 37.3229 259.953 40.3698 260.109 43.3906C260.318 46.4115 260.422 49.4583 260.422 52.5312C260.422 53.3646 260.396 54.3802 260.344 55.5781C260.292 56.724 260.109 57.8438 259.797 58.9375C259.536 60.0312 259.068 60.9688 258.391 61.75C257.766 62.5312 256.854 62.9219 255.656 62.9219C254.094 62.9219 252.792 62.349 251.75 61.2031C250.76 60.0052 250.135 58.6771 249.875 57.2188C248.885 59.0938 247.453 60.6823 245.578 61.9844C243.703 63.2865 241.672 63.9375 239.484 63.9375C237.141 63.9375 235.109 63.1302 233.391 61.5156C231.724 59.901 230.318 57.9479 229.172 55.6562C228.078 53.3646 227.245 50.9688 226.672 48.4688C226.151 45.9688 225.891 43.8073 225.891 41.9844C225.891 40.6823 225.969 39.1979 226.125 37.5312C226.281 35.8646 226.542 34.1719 226.906 32.4531C227.323 30.7344 227.844 29.0677 228.469 27.4531C229.094 25.7865 229.875 24.3021 230.812 23C231.802 21.6979 232.948 20.6562 234.25 19.875C235.604 19.0938 237.141 18.7031 238.859 18.7031C240.734 18.7031 242.531 19.25 244.25 20.3438C245.969 21.4375 247.271 22.7917 248.156 24.4062L248.859 11.9844C248.911 10.9948 248.99 9.84896 249.094 8.54688C249.198 7.19271 249.406 5.91667 249.719 4.71875C250.083 3.52083 250.63 2.50521 251.359 1.67188C252.089 0.838542 253.156 0.421875 254.562 0.421875C256.073 0.421875 257.245 0.786458 258.078 1.51562C258.911 2.24479 259.51 3.18229 259.875 4.32812C260.292 5.42188 260.526 6.61979 260.578 7.92188C260.682 9.22396 260.734 10.4479 260.734 11.5938ZM248 46.2812C248 45.0833 247.974 43.9115 247.922 42.7656C247.87 41.6198 247.87 40.4479 247.922 39.25C247.609 38.5729 247.245 37.8438 246.828 37.0625C246.411 36.2292 245.891 35.474 245.266 34.7969C244.693 34.0677 244.042 33.4688 243.312 33C242.583 32.5312 241.802 32.2969 240.969 32.2969C240.031 32.2969 239.276 32.5833 238.703 33.1562C238.13 33.7292 237.714 34.4323 237.453 35.2656C237.193 36.0469 237.01 36.9062 236.906 37.8438C236.854 38.7812 236.828 39.5885 236.828 40.2656C236.828 40.8906 236.88 41.8281 236.984 43.0781C237.089 44.276 237.271 45.5 237.531 46.75C237.844 48 238.26 49.0938 238.781 50.0312C239.302 50.9688 240.005 51.4375 240.891 51.4375C241.568 51.4375 242.245 51.3073 242.922 51.0469C243.599 50.7344 244.224 50.3698 244.797 49.9531C245.422 49.4844 245.995 48.9896 246.516 48.4688C247.089 47.8958 247.583 47.375 248 46.9062V46.2812Z" fill="white"/>
</svg>
